<svg width="59" height="59" viewBox="0 0 59 59" fill="none" xmlns="http://www.w3.org/2000/svg">
<path d="M54.0835 14.75V20.6991C54.0835 24.5833 51.6252 27.0416 47.741 27.0416H39.3335V9.85787C39.3335 7.12912 41.5706 4.91663 44.2993 4.91663C46.9789 4.94121 49.4372 6.02287 51.2072 7.79287C52.9772 9.58745 54.0835 12.0458 54.0835 14.75Z" stroke="white" stroke-width="1.5" stroke-miterlimit="10" stroke-linecap="round" stroke-linejoin="round"/>
<path d="M4.9165 17.2083V51.625C4.9165 53.6654 7.22734 54.8208 8.84984 53.5916L13.0536 50.445C14.0369 49.7075 15.4136 49.8058 16.2986 50.6908L20.3794 54.7962C21.3382 55.755 22.9115 55.755 23.8703 54.7962L28.0003 50.6662C28.8607 49.8058 30.2373 49.7075 31.1961 50.445L35.3998 53.5916C37.0223 54.7962 39.3332 53.6408 39.3332 51.625V9.83329C39.3332 7.12913 41.5457 4.91663 44.2498 4.91663H17.2082H14.7498C7.37484 4.91663 4.9165 9.31704 4.9165 14.75V17.2083Z" stroke="white" stroke-width="1.5" stroke-miterlimit="10" stroke-linecap="round" stroke-linejoin="round"/>
<path d="M22.125 31.9829H29.5" stroke="white" stroke-width="1.5" stroke-linecap="round" stroke-linejoin="round"/>
<path d="M22.125 22.1497H29.5" stroke="white" stroke-width="1.5" stroke-linecap="round" stroke-linejoin="round"/>
<path d="M14.7393 31.9584H14.7613" stroke="white" stroke-width="2" stroke-linecap="round" stroke-linejoin="round"/>
<path d="M14.7393 22.125H14.7613" stroke="white" stroke-width="2" stroke-linecap="round" stroke-linejoin="round"/>
</svg>
